<svg width="44" height="512" viewBox="0 0 44 512" fill="none" xmlns="http://www.w3.org/2000/svg">
    <rect x="2.5" y="2.5" width="39" height="27" rx="2.5" fill="white" stroke="#D9D9D9"/>
    <path fill-rule="evenodd" clip-rule="evenodd" d="M14.1432 20.9679H11.72L9.90283 13.8911C9.81658 13.5656 9.63345 13.2778 9.36407 13.1421C8.69181 12.8013 7.95102 12.53 7.14288 12.3932V12.1207H11.0465C11.5853 12.1207 11.9893 12.53 12.0567 13.0053L12.9995 18.1101L15.4215 12.1207H17.7774L14.1432 20.9679ZM19.1243 20.9679H16.8358L18.7202 12.1207H21.0088L19.1243 20.9679ZM23.9696 14.5717C24.0369 14.0951 24.441 13.8227 24.9124 13.8227C25.6532 13.7543 26.4602 13.8911 27.1336 14.2308L27.5377 12.3259C26.8642 12.0535 26.1234 11.9167 25.4512 11.9167C23.23 11.9167 21.6137 13.1421 21.6137 14.8429C21.6137 16.1368 22.7586 16.8162 23.5667 17.2255C24.441 17.6336 24.7777 17.906 24.7104 18.3141C24.7104 18.9263 24.0369 19.1987 23.3647 19.1987C22.5565 19.1987 21.7484 18.9947 21.0088 18.6538L20.6047 20.5599C21.4129 20.8995 22.2871 21.0364 23.0953 21.0364C25.5859 21.1036 27.1336 19.8793 27.1336 18.0417C27.1336 15.7275 23.9696 15.5919 23.9696 14.5717ZM35.1429 20.9679L33.3258 12.1207H31.3739C30.9699 12.1207 30.5658 12.3932 30.4311 12.8013L27.0663 20.9679H29.4221L29.8924 19.6752H32.787L33.0564 20.9679H35.1429ZM31.7107 14.5032L32.3829 17.8376H30.4985L31.7107 14.5032Z" fill="#172B85"/>
    <rect x="2.5" y="34.5" width="39" height="27" rx="2.5" fill="white" stroke="#D9D9D9"/>
    <path fill-rule="evenodd" clip-rule="evenodd" d="M27.3445 55.9403C31.6516 55.9403 35.1431 52.3346 35.1431 47.8868C35.1431 43.439 31.6516 39.8333 27.3445 39.8333C25.4142 39.8333 23.6477 40.5576 22.2858 41.7573C20.924 40.5576 19.1575 39.8333 17.2272 39.8333C12.9201 39.8333 9.42859 43.439 9.42859 47.8868C9.42859 52.3346 12.9201 55.9403 17.2272 55.9403C19.1575 55.9403 20.9241 55.216 22.2859 54.0163C23.6477 55.216 25.4142 55.9403 27.3445 55.9403Z" fill="#ED0006"/>
    <path fill-rule="evenodd" clip-rule="evenodd" d="M22.286 54.0163C23.9628 52.5392 25.026 50.3412 25.026 47.8868C25.026 45.4323 23.9628 43.2344 22.286 41.7572C23.6478 40.5575 25.4143 39.8333 27.3446 39.8333C31.6517 39.8333 35.1432 43.439 35.1432 47.8868C35.1432 52.3346 31.6517 55.9403 27.3446 55.9403C25.4143 55.9403 23.6478 55.216 22.286 54.0163Z" fill="#F9A000"/>
    <path fill-rule="evenodd" clip-rule="evenodd" d="M22.286 54.0163C23.9628 52.5391 25.026 50.3412 25.026 47.8867C25.026 45.4323 23.9628 43.2343 22.286 41.7572C20.6092 43.2343 19.546 45.4323 19.546 47.8867C19.546 50.3412 20.6092 52.5391 22.286 54.0163Z" fill="#FF5E00"/>
    <rect x="2.5" y="66.5" width="39" height="27" rx="2.5" fill="white" stroke="#D9D9D9"/>
    <path fill-rule="evenodd" clip-rule="evenodd" d="M37.1263 77.2127C38.3681 77.2127 39.0511 77.7768 39.0511 78.8424C39.1132 79.6572 38.5544 80.3467 37.8093 80.4721L39.4857 82.7913H38.1818L36.7538 80.5348H36.6296V82.7913H35.5741V77.2127H37.1263ZM36.6296 79.7826H36.9401C37.623 79.7826 37.9335 79.4692 37.9335 78.905C37.9335 78.4036 37.623 78.0902 36.9401 78.0902H36.6296V79.7826ZM31.9109 82.7913H34.8911V81.8511H32.9664V80.3467H34.829V79.4065H32.9664V78.1529H34.8911V77.2127H31.9109V82.7913ZM28.8064 80.9735L27.3784 77.2127H26.2608L28.5581 82.9167H29.1169L31.4142 77.2127H30.2965L28.8064 80.9735ZM16.2024 80.0333C16.2024 81.6004 17.4441 82.9167 18.9964 82.9167C19.4931 82.9167 19.9277 82.7913 20.3623 82.6033V81.3496C20.0519 81.7257 19.6173 81.9764 19.1205 81.9764C18.1271 81.9764 17.32 81.2243 17.32 80.2214V80.096C17.2579 79.0931 18.065 78.2156 19.0585 78.1529C19.5552 78.1529 20.0519 78.4036 20.3623 78.7797V77.5261C19.9898 77.2753 19.4931 77.2127 19.0585 77.2127C17.4441 77.0873 16.2024 78.4036 16.2024 80.0333ZM14.2776 79.3438C13.6567 79.0931 13.4704 78.9677 13.4704 78.6543C13.5325 78.2782 13.843 77.9648 14.2155 78.0275C14.526 78.0275 14.8364 78.2156 15.0848 78.4663L15.6436 77.7141C15.2089 77.338 14.6501 77.0873 14.0913 77.0873C13.2221 77.0246 12.477 77.7141 12.4149 78.5916V78.6543C12.4149 79.4065 12.7254 79.8453 13.7188 80.1587C13.9672 80.2214 14.2155 80.3467 14.4639 80.4721C14.6501 80.5974 14.7743 80.7855 14.7743 81.0362C14.7743 81.475 14.4018 81.8511 14.0292 81.8511H13.9672C13.4704 81.8511 13.0358 81.5377 12.8496 81.0989L12.1666 81.7884C12.5391 82.4779 13.2842 82.854 14.0292 82.854C15.0227 82.9167 15.8298 82.1645 15.8919 81.1616V80.9735C15.8298 80.2214 15.5194 79.8453 14.2776 79.3438ZM10.6764 82.7913H11.732V77.2127H10.6764V82.7913ZM5.77142 77.2127H7.32365H7.63409C9.12423 77.2753 10.3039 78.529 10.2418 80.0333C10.2418 80.8482 9.86929 81.6004 9.2484 82.1645C8.6896 82.6033 8.00662 82.854 7.32365 82.7913H5.77142V77.2127ZM7.13737 81.8511C7.63409 81.9138 8.19289 81.7257 8.56542 81.4123C8.93795 81.0362 9.12422 80.5348 9.12422 79.9706C9.12422 79.4692 8.93795 78.9677 8.56542 78.5916C8.19289 78.2782 7.63409 78.0902 7.13737 78.1529H6.82693V81.8511H7.13737Z" fill="black"/>
    <path fill-rule="evenodd" clip-rule="evenodd" d="M23.5289 77.0833C21.9767 77.0833 20.6728 78.337 20.6728 79.9667C20.6728 81.5337 21.9146 82.85 23.5289 82.9127C25.1432 82.9754 26.385 81.6591 26.4471 80.0294C26.385 78.3996 25.1432 77.0833 23.5289 77.0833V77.0833Z" fill="#FD6020"/>
    <path d="M19 93H39C40.1046 93 41 92.1046 41 91V86L19 93Z" fill="#FD6020"/>
    <rect x="2.5" y="98.5" width="39" height="27" rx="2.5" fill="#1F72CD" stroke="#D9D9D9"/>
    <path fill-rule="evenodd" clip-rule="evenodd" d="M9.17107 107.917L5.42859 116.371H9.90887L10.4643 115.023H11.7339L12.2893 116.371H17.2208V115.342L17.6602 116.371H20.2112L20.6506 115.321V116.371H30.9069L32.154 115.058L33.3217 116.371L38.5896 116.382L34.8352 112.168L38.5896 107.917H33.4034L32.1895 109.205L31.0585 107.917H19.901L18.9429 110.099L17.9624 107.917H13.4915V108.911L12.9941 107.917H9.17107ZM24.4867 109.117H30.3763L32.1776 111.104L34.0371 109.117H35.8384L33.1014 112.166L35.8384 115.18H33.9554L32.154 113.171L30.2851 115.18H24.4867V109.117ZM25.9411 111.481V110.373V110.372H29.616L31.2195 112.143L29.545 113.924H25.9411V112.715H29.1541V111.481H25.9411ZM10.038 109.117H12.2219L14.7043 114.85V109.117H17.0966L19.014 113.228L20.7811 109.117H23.1615V115.184H21.713L21.7012 110.43L19.5896 115.184H18.2939L16.1704 110.43V115.184H13.1906L12.6257 113.824H9.57374L9.01001 115.183H7.41349L10.038 109.117ZM10.0949 112.567L11.1004 110.144L12.1047 112.567H10.0949Z" fill="white"/>
    <rect x="2.5" y="130.5" width="39" height="27" rx="2.91249" fill="#599A4F" stroke="#D9D9D9"/>
    <rect x="2" y="136.154" width="39.6862" height="5.12823" fill="#D9D9D9"/>
    <rect x="5.01416" y="151.539" width="13.0613" height="2.05129" fill="#D9D9D9"/>
    <rect x="2.5" y="162.5" width="39" height="27" rx="2.5" fill="white" stroke="#D9D9D9"/>
    <path fill-rule="evenodd" clip-rule="evenodd" d="M13.3143 179.781H11.5364C11.4148 179.781 11.3113 179.871 11.2923 179.994L10.5733 184.648C10.559 184.74 10.6287 184.822 10.7199 184.822H11.5687C11.6903 184.822 11.7938 184.732 11.8128 184.609L12.0067 183.354C12.0254 183.231 12.1291 183.141 12.2505 183.141H12.8133C13.9845 183.141 14.6603 182.563 14.8369 181.416C14.9164 180.915 14.8403 180.521 14.6102 180.244C14.3575 179.941 13.9093 179.781 13.3143 179.781ZM13.5194 181.481C13.4222 182.132 12.9348 182.132 12.4634 182.132H12.1952L12.3834 180.916C12.3946 180.842 12.4569 180.788 12.5297 180.788H12.6527C12.9737 180.788 13.2766 180.788 13.4331 180.975C13.5264 181.087 13.555 181.252 13.5194 181.481ZM18.6287 181.46H17.7773C17.7048 181.46 17.6421 181.514 17.6309 181.588L17.5933 181.831L17.5337 181.743C17.3494 181.47 16.9385 181.378 16.5282 181.378C15.5874 181.378 14.7839 182.106 14.6274 183.126C14.546 183.635 14.6616 184.122 14.9445 184.461C15.204 184.773 15.5752 184.903 16.0168 184.903C16.7749 184.903 17.1953 184.406 17.1953 184.406L17.1573 184.647C17.143 184.74 17.2126 184.822 17.3033 184.822H18.0703C18.1922 184.822 18.2951 184.732 18.3143 184.609L18.7745 181.635C18.7891 181.543 18.7196 181.46 18.6287 181.46ZM17.4419 183.152C17.3598 183.648 16.9737 183.981 16.4814 183.981C16.2342 183.981 16.0366 183.9 15.9098 183.747C15.7839 183.595 15.7361 183.378 15.7761 183.136C15.8529 182.644 16.2454 182.3 16.7302 182.3C16.9719 182.3 17.1685 182.382 17.2979 182.537C17.4276 182.693 17.4791 182.911 17.4419 183.152ZM22.3074 181.46H23.163C23.2828 181.46 23.3527 181.597 23.2846 181.697L20.4391 185.89C20.393 185.958 20.3171 185.999 20.236 185.999H19.3815C19.2612 185.999 19.191 185.86 19.2606 185.76L20.1467 184.483L19.2043 181.66C19.1717 181.562 19.2427 181.46 19.345 181.46H20.1856C20.2949 181.46 20.3912 181.533 20.4227 181.64L20.9228 183.345L22.1029 181.571C22.1491 181.501 22.2258 181.46 22.3074 181.46Z" fill="#253B80"/>
    <path fill-rule="evenodd" clip-rule="evenodd" d="M31.5834 184.648L32.313 179.909C32.3242 179.835 32.3866 179.781 32.4592 179.781H33.2806C33.3713 179.781 33.4409 179.864 33.4266 179.956L32.7071 184.609C32.6883 184.732 32.5849 184.822 32.463 184.822H31.7294C31.6387 184.822 31.569 184.74 31.5834 184.648ZM25.9955 179.781H24.2173C24.0959 179.781 23.9925 179.871 23.9735 179.994L23.2544 184.648C23.2401 184.74 23.3098 184.822 23.4006 184.822H24.313C24.3978 184.822 24.4703 184.759 24.4836 184.673L24.6876 183.354C24.7063 183.231 24.81 183.141 24.9314 183.141H25.494C26.6653 183.141 27.3411 182.563 27.5178 181.416C27.5975 180.915 27.5209 180.52 27.2909 180.244C27.0384 179.941 26.5905 179.781 25.9955 179.781ZM26.2006 181.481C26.1036 182.132 25.6162 182.132 25.1446 182.132H24.8766L25.0651 180.916C25.0763 180.842 25.1381 180.788 25.2111 180.788H25.3341C25.6549 180.788 25.9581 180.788 26.1145 180.975C26.2078 181.087 26.2362 181.252 26.2006 181.481ZM31.3094 181.46H30.4587C30.3855 181.46 30.3234 181.514 30.3125 181.588L30.2748 181.831L30.2151 181.743C30.0308 181.47 29.62 181.378 29.2098 181.378C28.2689 181.378 27.4657 182.106 27.3092 183.126C27.2281 183.635 27.3432 184.122 27.6261 184.461C27.886 184.773 28.2568 184.903 28.6984 184.903C29.4564 184.903 29.8768 184.406 29.8768 184.406L29.8389 184.647C29.8246 184.74 29.8942 184.822 29.9855 184.822H30.7521C30.8735 184.822 30.9769 184.732 30.9959 184.609L31.4563 181.635C31.4704 181.543 31.4007 181.46 31.3094 181.46ZM30.1228 183.152C30.0411 183.648 29.6546 183.981 29.1622 183.981C28.9154 183.981 28.7174 183.9 28.5905 183.747C28.4647 183.595 28.4174 183.378 28.457 183.136C28.5341 182.644 28.9261 182.3 29.411 182.3C29.6528 182.3 29.8492 182.382 29.9788 182.537C30.1089 182.693 30.1604 182.911 30.1228 183.152Z" fill="#179BD7"/>
    <path d="M19.8937 178.116L20.1123 176.699L19.6254 176.687H17.3006L18.9162 166.23C18.9212 166.198 18.9375 166.169 18.9614 166.148C18.9852 166.127 19.0157 166.115 19.0475 166.115H22.9675C24.2689 166.115 25.167 166.392 25.6359 166.937C25.8557 167.193 25.9957 167.461 26.0634 167.755C26.1344 168.064 26.1357 168.433 26.0663 168.883L26.0613 168.916V169.204L26.2812 169.332C26.4663 169.432 26.6133 169.547 26.7262 169.678C26.9143 169.897 27.036 170.175 27.0873 170.505C27.1404 170.844 27.1228 171.248 27.036 171.704C26.9356 172.23 26.7735 172.688 26.5545 173.062C26.353 173.408 26.0964 173.694 25.7918 173.916C25.5009 174.126 25.1553 174.286 24.7646 174.389C24.3858 174.489 23.9542 174.54 23.4807 174.54H23.1756C22.9575 174.54 22.7455 174.62 22.5793 174.764C22.4125 174.911 22.3021 175.111 22.2683 175.331L22.2453 175.458L21.8592 177.956L21.8416 178.048C21.837 178.077 21.8291 178.091 21.8174 178.101C21.807 178.11 21.7919 178.116 21.7772 178.116H19.8937Z" fill="#253B80"/>
    <path d="M26.4894 168.949C26.4777 169.026 26.4643 169.104 26.4493 169.184C25.9322 171.894 24.1637 172.83 21.9048 172.83H20.7547C20.4785 172.83 20.2457 173.034 20.2027 173.313L19.6138 177.125L19.447 178.205C19.419 178.388 19.557 178.553 19.7375 178.553H21.7774C22.019 178.553 22.2241 178.374 22.2621 178.13L22.2822 178.025L22.6663 175.537L22.691 175.4C22.7285 175.156 22.9341 174.977 23.1757 174.977H23.4807C25.457 174.977 27.0042 174.158 27.4565 171.787C27.6453 170.797 27.5475 169.97 27.0477 169.389C26.8964 169.214 26.7088 169.068 26.4894 168.949Z" fill="#179BD7"/>
    <path d="M25.9483 168.73C25.8694 168.706 25.7879 168.685 25.7042 168.666C25.6203 168.647 25.5341 168.63 25.4456 168.616C25.1355 168.564 24.7957 168.54 24.4317 168.54H21.3592C21.2835 168.54 21.2117 168.558 21.1474 168.589C21.0056 168.659 20.9004 168.796 20.8749 168.963L20.2212 173.189L20.2024 173.313C20.2455 173.035 20.4782 172.83 20.7545 172.83H21.9045C24.1634 172.83 25.9321 171.893 26.449 169.184C26.4644 169.104 26.4774 169.026 26.4891 168.95C26.3583 168.879 26.2166 168.818 26.0641 168.767C26.0265 168.754 25.9877 168.741 25.9483 168.73Z" fill="#222D65"/>
    <path d="M20.8749 168.963C20.9004 168.796 21.0058 168.659 21.1474 168.59C21.2122 168.558 21.2837 168.54 21.3592 168.54H24.4318C24.7959 168.54 25.1356 168.565 25.4456 168.616C25.5343 168.63 25.6204 168.647 25.7044 168.666C25.788 168.685 25.8694 168.706 25.9485 168.73C25.9877 168.742 26.0266 168.754 26.0646 168.767C26.2171 168.818 26.3588 168.879 26.4896 168.95C26.6435 167.948 26.4884 167.267 25.9581 166.649C25.3734 165.97 24.3182 165.679 22.9679 165.679H19.0478C18.7719 165.679 18.5367 165.883 18.494 166.162L16.8613 176.727C16.8291 176.936 16.987 177.125 17.1935 177.125H19.6137L20.2213 173.189L20.8749 168.963Z" fill="#253B80"/>
    <rect x="2.5" y="194.5" width="39" height="27" rx="2.5" fill="#232527" stroke="#D9D9D9"/>
    <path d="M16.7669 198.936L12.9362 213.233L27.233 217.064L31.0638 202.767L16.7669 198.936ZM23.4627 210.534L19.4676 209.463L20.5386 205.468L24.5353 206.539L23.4627 210.534Z" fill="white"/>
    <rect x="2.5" y="226.5" width="39" height="27" rx="2.5" fill="#A4A4A4" stroke="#D9D9D9"/>
    <rect x="3.25" y="231.75" width="37.5" height="5.5" fill="#343434" stroke="#343434" stroke-width="0.5"/>
    <rect x="5.01416" y="247.539" width="13.0613" height="2.05129" fill="#D9D9D9"/>
    <rect x="2.5" y="258.5" width="39" height="27" rx="2.5" fill="#191919" stroke="#D9D9D9"/>
    <path d="M26.3743 272C26.3743 270.8 27.0743 269.6 28.0743 268.9C27.3743 267.9 26.2743 267.3 25.1743 267.3C23.9743 267.2 22.7743 268 22.0743 268C21.3743 268 20.4743 267.3 19.4743 267.3C18.0743 267.3 16.8743 268.1 16.1743 269.3C14.7743 271.8 15.7743 275.4 17.1743 277.4C17.8743 278.4 18.6743 279.5 19.6743 279.4C20.6743 279.3 21.0743 278.8 22.2743 278.8C23.4743 278.8 23.8743 279.4 24.8743 279.4C25.8743 279.4 26.6743 278.4 27.2743 277.4C27.7743 276.7 28.1743 275.9 28.3743 275.1C27.1743 274.6 26.3743 273.3 26.3743 272Z" fill="white"/>
    <path d="M24.3743 266.1C24.9743 265.4 25.2743 264.5 25.1743 263.5C24.2743 263.6 23.3743 264 22.7743 264.7C22.1743 265.4 21.8743 266.3 21.9743 267.2C22.8743 267.2 23.7743 266.8 24.3743 266.1Z" fill="white"/>
    <rect x="2.5" y="290.5" width="39" height="27" rx="2.5" fill="#191919" stroke="#D9D9D9"/>
    <path d="M26.5 301.5L16.8 296.2C16.6 296.1 16.3 296 16.1 296.1L24.1 304.1L26.5 301.5Z" fill="url(#paint0_linear_1_74)"/>
    <path d="M26.6 306.5L29.9 304.7C30.6 304.3 30.6 303.7 29.9 303.4L26.6 301.6L24.1 304.1L26.6 306.5Z" fill="url(#paint1_linear_1_74)"/>
    <path d="M16.1 296C15.8 296.1 15.6 296.5 15.6 296.8V311C15.6 311.4 15.7 311.7 16.1 311.8L24.1 303.8L16.1 296Z" fill="url(#paint2_linear_1_74)"/>
    <path d="M16.1 312C16.4 312.1 16.6 312 16.9 311.9L26.6 306.5L24.1 304L16.1 312Z" fill="url(#paint3_linear_1_74)"/>
    <rect x="2.5" y="322.5" width="39" height="27" rx="2.5" fill="#191919" stroke="#D9D9D9"/>
    <path d="M25.9 339.7C23.9 341.1 21.5 341.8 19 341.8C15.9 341.8 12.9 340.7 10.6 338.6C10.4 338.4 10.6 338.2 10.8 338.4C13.4 339.9 16.3 340.6 19.2 340.6C21.4 340.6 23.6 340.1 25.6 339.3C25.9 339.1 26.2 339.5 25.9 339.7Z" fill="#FF9900"/>
    <path d="M26.6 338.8C26.4 338.5 25 338.7 24.4 338.7C24.2 338.7 24.2 338.6 24.4 338.5C25.3 337.9 26.4 337.8 27.4 338.2C27.5 339.3 27.1 340.3 26.3 341C26.2 341.1 26 341.1 26.1 340.9C26.4 340.4 26.9 339.1 26.6 338.8Z" fill="#FF9900"/>
    <path d="M24.5 333.2V332.5C24.5 332.4 24.6 332.3 24.7 332.3H28C28.1 332.3 28.2 332.4 28.2 332.5V333.1C28.2 333.3 28.1 333.4 28 333.6L26.3 336C26.9 336 27.6 336.1 28.2 336.4C28.3 336.5 28.4 336.6 28.4 336.7V337.5C28.4 337.6 28.3 337.7 28.2 337.7C27.1 337.1 25.8 337.1 24.8 337.7C24.7 337.8 24.6 337.6 24.6 337.5V336.8C24.6 336.6 24.6 336.5 24.7 336.3L26.7 333.5H25C24.9 333.5 24.8 333.5 24.8 333.4C24.5 333.3 24.5 333.2 24.5 333.2Z" fill="white"/>
    <path d="M12.6 337.7H11.6C11.5 337.7 11.4 337.6 11.4 337.5V332.4C11.4 332.3 11.5 332.2 11.6 332.2H12.5C12.6 332.2 12.7 332.3 12.7 332.4V333.1C12.9 332.4 13.7 332 14.4 332.2C14.8 332.3 15.1 332.7 15.3 333.1C15.6 332.3 16.4 332 17.2 332.3C17.4 332.4 17.7 332.6 17.8 332.8C18 333.3 18.1 333.8 18 334.4V337.6C18 337.7 17.9 337.8 17.8 337.8H16.8C16.7 337.8 16.6 337.7 16.6 337.6V334.9C16.6 334.6 16.6 334.2 16.6 333.9C16.6 333.6 16.3 333.4 16 333.5C15.7 333.5 15.5 333.7 15.4 333.9C15.3 334.2 15.3 334.6 15.3 334.9V337.6C15.3 337.7 15.2 337.8 15.1 337.8H14.1C14 337.8 13.9 337.7 13.9 337.6V334.9C13.9 334.3 14 333.5 13.3 333.5C12.6 333.5 12.6 334.3 12.6 334.9V337.6C12.8 337.6 12.7 337.7 12.6 337.7Z" fill="white"/>
    <path d="M30.9 332.2C32.4 332.2 33.2 333.5 33.2 335.1C33.2 336.7 32.3 337.9 30.9 337.9C29.5 337.9 28.7 336.6 28.7 335.1C28.7 333.6 29.5 332.2 30.9 332.2ZM30.9 333.2C30.2 333.2 30.1 334.2 30.1 334.8C30.1 335.4 30.1 336.7 30.9 336.7C31.7 336.7 31.7 335.6 31.7 335C31.7 334.5 31.7 334.1 31.6 333.6C31.5 333.4 31.2 333.2 30.9 333.2Z" fill="white"/>
    <path d="M35.1 337.7H34.1C34 337.7 33.9 337.6 33.9 337.5V332.4C33.9 332.3 34 332.2 34.1 332.2H35C35.1 332.2 35.2 332.3 35.2 332.3V333.1C35.4 332.5 35.9 332.1 36.5 332.1C37 332.1 37.4 332.3 37.7 332.7C37.9 333.2 38 333.7 38 334.3V337.5C38 337.6 37.9 337.7 37.8 337.7H36.8C36.7 337.7 36.6 337.6 36.6 337.5V334.7C36.6 334.1 36.7 333.3 36 333.3C35.7 333.3 35.5 333.5 35.4 333.7C35.3 334 35.2 334.4 35.2 334.7V337.4C35.2 337.7 35.2 337.7 35.1 337.7Z" fill="white"/>
    <path d="M23.6 336.8C23.4 336.6 23.2 336.2 23.2 335.9V334.4C23.2 333.8 23.2 333.2 22.8 332.7C22.4 332.4 21.8 332.2 21.3 332.2C20.3 332.1 19.3 332.7 19.1 333.7C19.1 333.8 19.2 333.9 19.3 333.9L20.3 334C20.4 334 20.5 333.9 20.5 333.8C20.6 333.4 20.9 333.2 21.3 333.2C21.5 333.2 21.7 333.3 21.9 333.5C22 333.7 22.1 334 22 334.2V334.3C21.4 334.3 20.7 334.4 20.1 334.6C19.5 334.9 19.1 335.5 19.1 336.2C19.1 336.3 19.1 336.3 19.1 336.4C19.1 337.2 19.8 337.8 20.6 337.7C21.2 337.7 21.8 337.5 22.2 337C22.3 337.3 22.5 337.5 22.8 337.7C22.9 337.7 23 337.7 23 337.7H22.9L23.7 337C23.6 337 23.6 336.9 23.6 336.8ZM21.7 336.4C21.6 336.7 21.3 336.8 21 336.9C20.6 336.9 20.4 336.6 20.4 336.2C20.4 335.4 21.2 335.2 21.9 335.2V335.4C21.9 335.7 21.9 336 21.7 336.4Z" fill="white"/>
    <path d="M10.6 336.8C10.4 336.6 10.2 336.2 10.2 335.9V334.4C10.2 333.8 10.2 333.2 9.8 332.7C9.4 332.4 8.8 332.2 8.3 332.2C7.3 332.1 6.3 332.7 6.1 333.7C6.1 333.8 6.2 333.9 6.3 333.9L7.3 334C7.4 334 7.5 333.9 7.5 333.8C7.6 333.4 7.9 333.2 8.3 333.2C8.5 333.2 8.7 333.3 8.9 333.5C9 333.7 9.1 334 9 334.2V334.3C8.4 334.3 7.7 334.4 7.1 334.6C6.4 334.9 6 335.5 6 336.2C6 336.3 6 336.3 6 336.4C6 337.2 6.7 337.8 7.5 337.7C8.1 337.7 8.7 337.5 9.1 337C9.2 337.3 9.4 337.5 9.7 337.7C9.8 337.7 9.9 337.7 9.9 337.7L10.7 337C10.7 337 10.7 336.9 10.6 336.8ZM8.7 336.4C8.6 336.7 8.3 336.8 8 336.9C7.6 336.9 7.4 336.6 7.4 336.2C7.4 335.4 8.2 335.2 8.9 335.2V335.4C9 335.7 8.9 336 8.7 336.4Z" fill="white"/>
    <rect x="2.5" y="354.5" width="39" height="27" rx="2.5" fill="#191919" stroke="#D9D9D9"/>
    <path d="M21.375 370.994L18.7665 367.328L21.1494 364H20.2579L18.3153 366.715L16.3726 364H15.4756L17.864 367.334L15.25 371H16.147L18.3153 367.964L20.478 371H21.375" fill="white"/>
    <path d="M38.875 370.994L36.2665 367.328L38.6494 364H37.7579L35.8153 366.715L33.8726 364H32.9756L35.364 367.334L32.75 371H33.647L35.8153 367.964L37.978 371H38.875" fill="white"/>
    <path d="M24.6811 370.266C24.6811 370.266 22.8947 370.266 22.5619 370.266V367.721C22.8888 367.721 24.6811 367.721 24.6811 367.721C25.4868 367.721 26.4442 367.933 26.4442 368.936C26.4442 370.094 25.335 370.266 24.6811 370.266ZM22.5619 364.728C22.8888 364.728 24.6811 364.728 24.6811 364.728C25.2533 364.728 26.2165 364.866 26.2165 365.84C26.2165 366.574 25.6561 367.016 24.6811 367.016C24.6811 367.016 22.8947 367.016 22.5619 367.016V364.728ZM26.6252 367.595C26.4734 367.468 26.3158 367.371 26.1523 367.302C26.6719 367.027 27.0164 366.505 27.0164 365.903C27.0164 365.456 26.8471 364 24.6753 364H21.7504V367.021C21.7504 367.021 20.8046 367.021 20.7754 367.021C20.647 367.182 20.3609 367.566 20.25 367.721C20.3551 367.721 21.7504 367.721 21.7504 367.721V371H24.6753C26.2632 371 27.2499 370.215 27.2499 368.953C27.2557 368.403 27.0397 367.933 26.6252 367.595Z" fill="white"/>
    <path d="M30.5051 370.292C29.1553 370.292 28.2131 369.146 28.2131 367.5C28.2131 365.854 29.1553 364.708 30.5051 364.708C31.8497 364.708 32.7869 365.854 32.7869 367.5C32.7869 369.14 31.8497 370.292 30.5051 370.292ZM30.5051 364C28.7326 364 27.5 365.437 27.5 367.5C27.5 369.563 28.7326 371 30.5051 371C32.2674 371 33.5 369.563 33.5 367.5C33.5 365.437 32.2674 364 30.5051 364Z" fill="white"/>
    <path d="M9.4047 371.981C8.69431 371.915 7.97469 371.667 7.35567 371.273C6.83725 370.943 6.72022 370.808 6.72022 370.537C6.72022 369.995 7.33308 369.043 8.38018 367.96C8.9756 367.344 9.80404 366.623 9.89335 366.642C10.0679 366.68 11.4609 368.005 11.9824 368.627C12.8078 369.615 13.1876 370.422 12.9946 370.782C12.8478 371.056 11.9393 371.591 11.272 371.795C10.7218 371.965 9.99909 372.037 9.4047 371.981ZM6.02113 369.974C5.59099 369.33 5.37336 368.695 5.26762 367.779C5.23272 367.476 5.24504 367.303 5.34667 366.682C5.47294 365.907 5.92463 365.012 6.46871 364.46C6.70072 364.225 6.72125 364.219 7.00355 364.312C7.34643 364.425 7.71189 364.671 8.27958 365.172L8.61116 365.463L8.43049 365.68C7.58973 366.686 6.70379 368.111 6.37016 368.992C6.18846 369.471 6.11557 369.953 6.19359 370.152C6.24594 370.287 6.1977 370.237 6.02113 369.974ZM13.5767 370.082C13.6188 369.881 13.5654 369.509 13.4391 369.134C13.1671 368.323 12.2545 366.812 11.4168 365.785L11.153 365.462L11.4383 365.207C11.811 364.873 12.0697 364.673 12.3489 364.504C12.5696 364.37 12.8837 364.252 13.0193 364.252C13.1024 364.252 13.396 364.549 13.6331 364.874C14.0007 365.375 14.2706 365.985 14.4072 366.619C14.4955 367.028 14.5026 367.905 14.4215 368.313C14.3548 368.647 14.2132 369.082 14.0756 369.378C13.9719 369.599 13.7153 370.028 13.6023 370.167C13.5449 370.237 13.5449 370.237 13.5767 370.082ZM9.48067 364.098C9.09365 363.906 8.49721 363.701 8.16768 363.645C8.05168 363.626 7.85561 363.615 7.72934 363.621C7.4573 363.634 7.46962 363.621 7.90591 363.421C8.26829 363.254 8.57113 363.156 8.98175 363.072C9.44371 362.977 10.3112 362.976 10.7659 363.07C11.2566 363.171 11.8346 363.381 12.16 363.576L12.2565 363.633L12.0348 363.622C11.5933 363.601 10.9507 363.774 10.2598 364.102C10.0514 364.201 9.87076 364.28 9.85742 364.277C9.8451 364.275 9.67469 364.194 9.48067 364.098Z" fill="white"/>
    <rect x="2.5" y="386.5" width="39" height="27" rx="2.5" fill="white" stroke="#E21C2A"/>
    <path fill-rule="evenodd" clip-rule="evenodd" d="M3 392.172C3 391.528 3.53241 391 4.18324 391H39.8166C40.4674 391 40.9998 391.528 40.9998 392.172V407.181C40.9998 407.826 40.4674 408.354 39.8166 408.354H4.18324C3.53241 408.354 3 407.826 3 407.181V392.172V392.172Z" fill="#F0A929"/>
    <path fill-rule="evenodd" clip-rule="evenodd" d="M2.99982 392.704H40.9997V406.65H2.99982V392.704V392.704Z" fill="white"/>
    <path fill-rule="evenodd" clip-rule="evenodd" d="M35.2038 396.326C33.4652 396.326 32.048 397.73 32.048 399.453C32.048 401.175 33.4652 402.58 35.2038 402.58C36.942 402.58 38.3593 401.175 38.3593 399.453C38.3593 397.73 36.942 396.326 35.2038 396.326Z" fill="#E21C2A"/>
    <path fill-rule="evenodd" clip-rule="evenodd" d="M9.19243 396.326C7.4537 396.326 6.03625 397.73 6.03625 399.453C6.03625 401.175 7.4537 402.58 9.19243 402.58C10.9304 402.58 12.3479 401.175 12.3479 399.453C12.3479 397.73 10.9304 396.326 9.19243 396.326Z" fill="#E21C2A"/>
    <path fill-rule="evenodd" clip-rule="evenodd" d="M34.9561 393.574C32.0347 393.507 30.6612 395.364 28.6679 397.653L26.7875 399.812L29.7652 403.344C30.4745 404.43 29.1206 405.507 28.2806 404.514L25.5276 401.26L22.845 404.341C21.9907 405.322 20.6521 404.226 21.3767 403.151L24.2889 399.795L22.381 397.54L23.6083 396.034L25.5486 398.344L27.2212 396.416C28.0419 395.471 28.8789 394.218 29.9637 393.574H2.99988V405.78H9.30412C12.2259 405.78 13.5522 404.049 15.4915 401.715L17.3214 399.513L14.2618 396.05C13.528 394.981 14.8562 393.874 15.7192 394.848L18.5468 398.038L21.1578 394.896C21.9888 393.895 23.3523 394.961 22.6531 396.052L19.8196 399.474L21.7796 401.685L20.5447 403.134L18.5937 400.954L16.9666 402.919C16.168 403.882 15.3596 405.112 14.2899 405.78H40.9998V393.574H34.9561V393.574ZM14.1778 399.453C14.1778 402.174 11.9385 404.393 9.19236 404.393C6.44554 404.393 4.20625 402.174 4.20625 399.453C4.20625 396.732 6.44554 394.513 9.19236 394.513C11.9385 394.513 14.1778 396.732 14.1778 399.453ZM35.2038 404.393C32.4574 404.393 30.2176 402.174 30.2176 399.453C30.2176 396.732 32.4574 394.513 35.2038 394.513C37.9502 394.513 40.1895 396.732 40.1895 399.453C40.1895 402.174 37.9502 404.393 35.2038 404.393Z" fill="#E21C2A"/>
    <rect x="2.5" y="418.5" width="39" height="27" rx="2.5" fill="white" stroke="#D9D9D9"/>
    <path d="M36.9074 439H4.5L6.96297 425H39.5L36.9074 439Z" fill="#393A41"/>
    <path d="M15.3056 429.952C13.842 429.952 12.731 431.053 12.731 432.366C12.731 433.554 13.6428 434.382 14.8842 434.382C16.3477 434.382 17.4511 433.249 17.4511 431.936C17.4588 430.741 16.5469 429.952 15.3056 429.952ZM14.9761 433.264C14.4167 433.264 14.026 432.889 14.026 432.311C14.026 431.671 14.5087 431.061 15.206 431.061C15.7654 431.061 16.1562 431.452 16.1562 432.03C16.1638 432.678 15.6734 433.264 14.9761 433.264Z" fill="#EDEDED"/>
    <path d="M24.1099 429.952C22.6463 429.952 21.543 431.053 21.543 432.366C21.543 433.554 22.4548 434.382 23.6962 434.382C25.1597 434.382 26.2631 433.249 26.2631 431.936C26.2708 430.741 25.3589 429.952 24.1099 429.952ZM23.7881 433.264C23.2287 433.264 22.838 432.889 22.838 432.311C22.838 431.671 23.3207 431.061 24.018 431.061C24.5774 431.061 24.9681 431.452 24.9681 432.03C24.9681 432.678 24.4854 433.264 23.7881 433.264Z" fill="#EDEDED"/>
    <path d="M30.5696 431.35C30.5696 430.553 29.9642 430.045 28.8609 430.045H27.313L26.631 434.288H27.9336L28.1482 432.952H28.2095L28.8992 434.288H30.3934L29.4355 432.803C30.1481 432.553 30.5696 432.014 30.5696 431.35ZM28.4854 432.053H28.2938L28.4394 431.163H28.6156C29.0218 431.163 29.2363 431.288 29.2363 431.561C29.2363 431.881 28.9298 432.053 28.4854 432.053Z" fill="#EDEDED"/>
    <path d="M11.2367 431.741C10.7387 431.483 10.6314 431.42 10.6314 431.28C10.6314 431.108 10.8306 431.022 11.0988 431.022C11.413 431.022 11.8881 431.061 12.3555 431.514C12.4704 431.147 12.662 430.819 12.9072 430.53C12.2482 430.147 11.6352 429.952 11.0758 429.952C9.96475 429.952 9.32109 430.561 9.32109 431.295C9.32109 431.928 9.78851 432.256 10.3402 432.546C10.8383 432.803 10.9609 432.889 10.9609 433.046C10.9609 433.218 10.754 433.311 10.4782 433.311C10.0031 433.311 9.45136 433.007 9.12186 432.694L8.9303 433.874C9.26745 434.124 9.75786 434.382 10.5011 434.382C11.6505 434.382 12.2712 433.788 12.2712 433.03C12.2712 432.405 11.8728 432.069 11.2367 431.741Z" fill="#EDEDED"/>
    <path d="M20.8916 431.905H19.3591L19.4817 431.163H21.1215C21.336 430.717 21.6656 430.334 22.0716 430.045H19.3898C18.7921 430.045 18.2863 430.459 18.202 431.022L17.681 434.296H18.9836L19.1982 432.96H20.7461L20.861 432.233C20.8687 432.116 20.8763 432.014 20.8916 431.905Z" fill="#EDEDED"/>
    <path d="M30.6002 430.045C30.9527 430.319 31.1673 430.702 31.2132 431.163H32.3013L31.8033 434.288H33.1059L33.604 431.163H34.8147L34.9909 430.045H30.6002Z" fill="#EDEDED"/>
    <rect x="2.5" y="450.5" width="39" height="27" rx="2.5" fill="white" stroke="#D9D9D9"/>
    <path fill-rule="evenodd" clip-rule="evenodd" d="M6.9068 456H8.57397V471.61H6.9068V456Z" fill="#231F20"/>
    <path fill-rule="evenodd" clip-rule="evenodd" d="M9.09961 456H9.61644V471.61H9.09961V456Z" fill="#231F20"/>
    <path fill-rule="evenodd" clip-rule="evenodd" d="M10.0662 456H10.9913V471.61H10.0662V456Z" fill="#231F20"/>
    <path fill-rule="evenodd" clip-rule="evenodd" d="M11.8827 456H12.3995V471.61H11.8827V456Z" fill="#231F20"/>
    <path fill-rule="evenodd" clip-rule="evenodd" d="M12.6241 456H13.0219V471.61H12.6241V456Z" fill="#231F20"/>
    <path fill-rule="evenodd" clip-rule="evenodd" d="M5.63928 456H6.15612V471.61H5.63928V456Z" fill="#231F20"/>
    <path fill-rule="evenodd" clip-rule="evenodd" d="M4.5 456H5.42458V471.61H4.5V456Z" fill="#231F20"/>
    <path fill-rule="evenodd" clip-rule="evenodd" d="M15.7834 456H17.45V471.61H15.7834V456Z" fill="#231F20"/>
    <path fill-rule="evenodd" clip-rule="evenodd" d="M17.9756 456H18.4918V471.61H17.9756V456Z" fill="#231F20"/>
    <path fill-rule="evenodd" clip-rule="evenodd" d="M18.9421 456H19.8673V471.61H18.9421V456Z" fill="#231F20"/>
    <path fill-rule="evenodd" clip-rule="evenodd" d="M20.7587 456H21.2755V471.61H20.7587V456Z" fill="#231F20"/>
    <path fill-rule="evenodd" clip-rule="evenodd" d="M21.5001 456H21.8985V471.61H21.5001V456Z" fill="#231F20"/>
    <path fill-rule="evenodd" clip-rule="evenodd" d="M14.5153 456H15.0321V471.61H14.5153V456Z" fill="#231F20"/>
    <path fill-rule="evenodd" clip-rule="evenodd" d="M13.376 456H14.3006V471.61H13.376V456Z" fill="#231F20"/>
    <path fill-rule="evenodd" clip-rule="evenodd" d="M22.553 456H23.4776V471.61H22.553V456Z" fill="#231F20"/>
    <path fill-rule="evenodd" clip-rule="evenodd" d="M24.3701 456H24.8851V471.61H24.3701V456Z" fill="#231F20"/>
    <path fill-rule="evenodd" clip-rule="evenodd" d="M25.1109 456H25.5099V471.61H25.1109V456Z" fill="#231F20"/>
    <path fill-rule="evenodd" clip-rule="evenodd" d="M27.0027 456H27.5189V471.61H27.0027V456Z" fill="#231F20"/>
    <path fill-rule="evenodd" clip-rule="evenodd" d="M25.8629 456H26.788V471.61H25.8629V456Z" fill="#231F20"/>
    <path fill-rule="evenodd" clip-rule="evenodd" d="M28.2061 456H28.7217V471.61H28.2061V456Z" fill="#231F20"/>
    <path fill-rule="evenodd" clip-rule="evenodd" d="M28.9469 456H29.3453V471.61H28.9469V456Z" fill="#231F20"/>
    <path fill-rule="evenodd" clip-rule="evenodd" d="M30.8386 456H31.3549V471.61H30.8386V456Z" fill="#231F20"/>
    <path fill-rule="evenodd" clip-rule="evenodd" d="M29.6989 456H30.624V471.61H29.6989V456Z" fill="#231F20"/>
    <path fill-rule="evenodd" clip-rule="evenodd" d="M31.8058 456H33.4724V471.61H31.8058V456Z" fill="#231F20"/>
    <path fill-rule="evenodd" clip-rule="evenodd" d="M33.9974 456H34.5143V471.61H33.9974V456Z" fill="#231F20"/>
    <path fill-rule="evenodd" clip-rule="evenodd" d="M34.9646 456H35.8898V471.61H34.9646V456Z" fill="#231F20"/>
    <path fill-rule="evenodd" clip-rule="evenodd" d="M36.7811 456H37.2979V471.61H36.7811V456Z" fill="#231F20"/>
    <path fill-rule="evenodd" clip-rule="evenodd" d="M37.5219 456H37.9203V471.61H37.5219V456Z" fill="#231F20"/>
    <path fill-rule="evenodd" clip-rule="evenodd" d="M38.576 456H39.5V471.61H38.576V456Z" fill="#231F20"/>
    <path fill-rule="evenodd" clip-rule="evenodd" d="M6.38593 471.645H38.3403V462.896H6.38593V471.645Z" fill="white"/>
    <path d="M6.98853 471.31V463.394H9.95886C10.5632 463.394 11.0479 463.474 11.4143 463.633C11.7789 463.794 12.0647 464.041 12.2712 464.374C12.4794 464.706 12.5827 465.054 12.5827 465.419C12.5827 465.757 12.4905 466.075 12.3079 466.374C12.1254 466.672 11.8494 466.914 11.479 467.098C11.9579 467.238 12.3266 467.477 12.5827 467.816C12.8405 468.153 12.9694 468.553 12.9694 469.014C12.9694 469.386 12.8907 469.73 12.7338 470.049C12.5769 470.368 12.3838 470.612 12.1534 470.786C11.9229 470.957 11.6336 471.089 11.2877 471.177C10.9394 471.265 10.5136 471.31 10.009 471.31H6.98853V471.31ZM8.03852 466.722H9.75002C10.2138 466.722 10.548 466.69 10.7487 466.629C11.0159 466.55 11.2165 466.418 11.3507 466.233C11.4854 466.049 11.5537 465.819 11.5537 465.54C11.5537 465.277 11.4913 465.045 11.3635 464.846C11.2387 464.646 11.0579 464.508 10.8239 464.433C10.59 464.36 10.1881 464.324 9.62052 464.324H8.03794V466.722H8.03852ZM8.03852 470.38H10.0102C10.3491 470.38 10.5865 470.368 10.7248 470.342C10.9645 470.3 11.1675 470.228 11.3297 470.127C11.4919 470.025 11.6243 469.878 11.7293 469.684C11.8343 469.491 11.8862 469.267 11.8862 469.015C11.8862 468.718 11.8109 468.463 11.6575 468.243C11.5064 468.024 11.2964 467.871 11.0275 467.783C10.7604 467.695 10.373 467.65 9.87019 467.65H8.03852V470.38V470.38Z" fill="#231F20"/>
    <path d="M13.9197 468.441C13.9197 467.381 14.2143 466.596 14.8063 466.086C15.2981 465.662 15.9007 465.45 16.61 465.45C17.3969 465.45 18.0415 465.708 18.5426 466.224C19.0419 466.738 19.2928 467.451 19.2928 468.359C19.2928 469.096 19.1825 469.675 18.9614 470.097C18.7403 470.519 18.4178 470.847 17.9943 471.081C17.5719 471.315 17.1099 471.431 16.6106 471.431C15.8073 471.431 15.1587 471.176 14.6628 470.662C14.1664 470.147 13.9197 469.406 13.9197 468.441ZM14.9148 468.442C14.9148 469.176 15.0747 469.725 15.3955 470.087C15.7181 470.453 16.1218 470.635 16.61 470.635C17.0924 470.635 17.4943 470.453 17.8169 470.086C18.1372 469.719 18.2976 469.161 18.2976 468.41C18.2976 467.703 18.1354 467.167 17.8128 466.804C17.4903 466.439 17.0889 466.257 16.6094 466.257C16.1212 466.257 15.7175 466.438 15.3949 466.8C15.0747 467.164 14.9148 467.711 14.9148 468.442Z" fill="#231F20"/>
    <path d="M20.411 471.31V463.394H21.3834V471.31H20.411Z" fill="#231F20"/>
    <path d="M26.8026 469.452L27.8083 469.585C27.6513 470.169 27.3585 470.624 26.9315 470.947C26.5045 471.269 25.9585 471.431 25.2929 471.431C24.4558 471.431 23.7938 471.173 23.3032 470.657C22.8132 470.143 22.5682 469.419 22.5682 468.489C22.5682 467.527 22.8149 466.778 23.3108 466.248C23.8066 465.715 24.4488 465.45 25.2393 465.45C26.0046 465.45 26.6288 465.71 27.1135 466.232C27.5977 466.753 27.8409 467.486 27.8409 468.431C27.8409 468.489 27.8392 468.575 27.8351 468.689H23.5633C23.6001 469.318 23.7774 469.8 24.0977 470.134C24.4162 470.467 24.8163 470.636 25.2935 470.636C25.6493 470.636 25.9538 470.541 26.2041 470.353C26.4561 470.165 26.6544 469.865 26.8026 469.452ZM23.6188 467.894H26.8131C26.7711 467.411 26.648 467.049 26.4468 466.809C26.1393 466.435 25.7374 466.247 25.2451 466.247C24.7994 466.247 24.4255 466.396 24.121 466.694C23.8194 466.992 23.6514 467.392 23.6188 467.894Z" fill="#231F20"/>
    <path d="M31.149 470.442L31.282 471.3C31.009 471.358 30.7646 471.387 30.5511 471.387C30.1987 471.387 29.9263 471.332 29.7309 471.219C29.5378 471.107 29.4013 470.962 29.3214 470.779C29.2426 470.597 29.2036 470.213 29.2036 469.629V466.323H28.4855V465.572H29.2036V464.153L30.1766 463.569V465.572H31.1496V466.323H30.1766V469.684C30.1766 469.963 30.1929 470.141 30.2285 470.221C30.2617 470.3 30.3166 470.362 30.3947 470.41C30.4711 470.456 30.582 470.48 30.7261 470.48C30.8322 470.48 30.974 470.467 31.149 470.442Z" fill="#231F20"/>
    <path d="M31.744 468.441C31.744 467.381 32.0392 466.596 32.6307 466.086C33.123 465.662 33.725 465.45 34.4349 465.45C35.2213 465.45 35.8659 465.708 36.3675 466.224C36.8669 466.738 37.1171 467.451 37.1171 468.359C37.1171 469.096 37.0069 469.675 36.7858 470.097C36.5653 470.519 36.2427 470.847 35.8186 471.081C35.3963 471.315 34.9337 471.431 34.4355 471.431C33.6317 471.431 32.9836 471.176 32.4872 470.662C31.9914 470.147 31.744 469.406 31.744 468.441ZM32.7386 468.442C32.7386 469.176 32.899 469.725 33.2199 470.087C33.5424 470.453 33.9449 470.635 34.4344 470.635C34.9162 470.635 35.3187 470.453 35.6407 470.086C35.9609 469.719 36.1219 469.161 36.1219 468.41C36.1219 467.703 35.9592 467.167 35.6372 466.804C35.3134 466.439 34.9127 466.257 34.4338 466.257C33.9444 466.257 33.5419 466.438 33.2193 466.8C32.8996 467.164 32.7386 467.711 32.7386 468.442Z" fill="#231F20"/>
    <rect x="2.5" y="482.5" width="39" height="27" rx="2.5" fill="white" stroke="#D9D9D9"/>
    <path fill-rule="evenodd" clip-rule="evenodd" d="M16.4027 501.3C17.1871 501.3 17.9252 500.994 18.4803 500.439L21.4798 497.44C21.6905 497.229 22.0573 497.229 22.2679 497.44L25.2791 500.451C25.8341 501.005 26.5715 501.311 27.3566 501.311H27.9471L24.148 505.11C22.9619 506.297 21.0384 506.297 19.8516 505.11L16.0416 501.3H16.4027H16.4027ZM27.3565 490.689C26.5721 490.689 25.8339 490.995 25.2789 491.55L22.2685 494.561C22.0514 494.777 21.6975 494.779 21.4804 494.56L18.4802 491.561C17.9251 491.006 17.1877 490.7 16.4026 490.7H16.0414L19.8515 486.89C21.0383 485.703 22.9617 485.703 24.1485 486.89L27.9477 490.689H27.3565V490.689Z" fill="#4BB8A9"/>
    <path fill-rule="evenodd" clip-rule="evenodd" d="M12.8901 493.852L15.1595 491.582H16.4027C16.944 491.582 17.4737 491.802 17.8565 492.184L20.8561 495.184C21.1369 495.465 21.5052 495.605 21.8743 495.605C22.2426 495.605 22.6117 495.465 22.8917 495.185L25.9029 492.173C26.2856 491.791 26.8154 491.571 27.3567 491.571H28.8293L31.1095 493.852C32.2963 495.038 32.2963 496.962 31.1095 498.149L28.8293 500.429H27.3566C26.8153 500.429 26.2856 500.21 25.9028 499.827L22.8924 496.816C22.3482 496.272 21.3994 496.272 20.856 496.817L17.8565 499.815C17.4736 500.198 16.9439 500.418 16.4026 500.418H15.1595L12.8901 498.149C11.7033 496.962 11.7033 495.038 12.8901 493.852" fill="#4BB8A9"/>
    <defs>
        <linearGradient id="paint0_linear_1_74" x1="22.3479" y1="303.357" x2="19.5691" y2="291.272" gradientUnits="userSpaceOnUse">
            <stop stop-color="#D6E59D"/>
            <stop offset="0.45" stop-color="#94C3A9"/>
            <stop offset="1" stop-color="#00A3B6"/>
        </linearGradient>
        <linearGradient id="paint1_linear_1_74" x1="22.0299" y1="295.058" x2="29.1503" y2="307.213" gradientUnits="userSpaceOnUse">
            <stop stop-color="#EC297B"/>
            <stop offset="0.02" stop-color="#ED327C"/>
            <stop offset="0.7" stop-color="#F5BB80"/>
            <stop offset="1" stop-color="#FCE974"/>
        </linearGradient>
        <linearGradient id="paint2_linear_1_74" x1="19.9574" y1="307.918" x2="15.6653" y2="291.322" gradientUnits="userSpaceOnUse">
            <stop stop-color="#88CEBC"/>
            <stop offset="0.09" stop-color="#7DBDBA"/>
            <stop offset="0.54" stop-color="#467CAC"/>
            <stop offset="0.85" stop-color="#1D5AA1"/>
            <stop offset="1" stop-color="#094F9C"/>
        </linearGradient>
        <linearGradient id="paint3_linear_1_74" x1="28.5858" y1="306.881" x2="13.6801" y2="308.918" gradientUnits="userSpaceOnUse">
            <stop stop-color="#EF4B29"/>
            <stop offset="0.47" stop-color="#B4506B"/>
            <stop offset="0.84" stop-color="#8B5191"/>
            <stop offset="1" stop-color="#7951A0"/>
        </linearGradient>
    </defs>
</svg>
